<svg xmlns="http://www.w3.org/2000/svg" viewBox="0 0 512 512" fill="none">
  <defs>
    <!-- Background Gradient -->
    <linearGradient id="csBg" x1="0%" y1="0%" x2="100%" y2="100%">
      <stop offset="0%" stop-color="#0d1117" />
      <stop offset="50%" stop-color="#111827" />
      <stop offset="100%" stop-color="#0a0e1a" />
    </linearGradient>

    <!-- Unified Cohesive Luxury Gradient -->
    <linearGradient id="csUnified" x1="15%" y1="15%" x2="85%" y2="85%">
      <stop offset="0%" stop-color="#38bdf8" />
      <stop offset="35%" stop-color="#2563eb" />
      <stop offset="70%" stop-color="#4f46e5" />
      <stop offset="100%" stop-color="#7c3aed" />
    </linearGradient>

    <!-- Specular Bevel Rim -->
    <linearGradient id="csRim" x1="0%" y1="0%" x2="100%" y2="100%">
      <stop offset="0%" stop-color="#7dd3fc" stop-opacity="0.85" />
      <stop offset="40%" stop-color="#3b82f6" stop-opacity="0.4" />
      <stop offset="100%" stop-color="#4f46e5" stop-opacity="0.15" />
    </linearGradient>

    <!-- Frosted Artboard Interior -->
    <linearGradient id="csArtboardFill" x1="0%" y1="0%" x2="100%" y2="100%">
      <stop offset="0%" stop-color="#162032" stop-opacity="0.9" />
      <stop offset="100%" stop-color="#0b101d" stop-opacity="0.95" />
    </linearGradient>
  </defs>

  <!-- Squircle Base with Beveled Rim -->
  <rect x="20" y="20" width="472" height="472" rx="116" fill="url(#csBg)" stroke="#1b2434" stroke-width="4" />
  <rect x="20" y="20" width="472" height="472" rx="116" fill="none" stroke="url(#csRim)" stroke-width="3.5" />

  <!-- Ambient Radial Bloom -->
  <circle cx="256" cy="256" r="160" fill="url(#csUnified)" opacity="0.16" />

  <!-- Hairline Grid & Rule of Thirds Guides -->
  <line x1="256" y1="96" x2="256" y2="416" stroke="#38bdf8" stroke-width="1.5" stroke-dasharray="5 7" stroke-opacity="0.22" />
  <line x1="96" y1="256" x2="416" y2="256" stroke="#38bdf8" stroke-width="1.5" stroke-dasharray="5 7" stroke-opacity="0.22" />

  <!-- 4 Precision Crop Corner Brackets -->
  <path d="M116 192 V140 C116 126.745 126.745 116 140 116 H192" stroke="url(#csUnified)" stroke-width="26" stroke-linecap="round" stroke-linejoin="round" />
  <path d="M320 116 H372 C385.255 116 396 126.745 396 140 V192" stroke="url(#csUnified)" stroke-width="26" stroke-linecap="round" stroke-linejoin="round" />
  <path d="M116 320 V372 C116 385.255 126.745 396 140 396 H192" stroke="url(#csUnified)" stroke-width="26" stroke-linecap="round" stroke-linejoin="round" />
  <path d="M320 396 H372 C385.255 396 396 385.255 396 372 V320" stroke="url(#csUnified)" stroke-width="26" stroke-linecap="round" stroke-linejoin="round" />

  <!-- Center Target Artboard Canvas -->
  <rect x="166" y="166" width="180" height="180" rx="28" fill="url(#csArtboardFill)" stroke="url(#csUnified)" stroke-width="10" stroke-opacity="0.9" />

  <!-- 4 Corner Transform Nodes (CAD / Figma Style) -->
  <circle cx="166" cy="166" r="8" fill="#38bdf8" stroke="#ffffff" stroke-width="3" />
  <circle cx="346" cy="166" r="8" fill="#38bdf8" stroke="#ffffff" stroke-width="3" />
  <circle cx="166" cy="346" r="8" fill="#38bdf8" stroke="#ffffff" stroke-width="3" />
  <circle cx="346" cy="346" r="8" fill="#818cf8" stroke="#ffffff" stroke-width="3" />

  <!-- Dynamic Scaling Vector (Diagonal) -->
  <line x1="204" y1="308" x2="308" y2="204" stroke="#ffffff" stroke-width="10" stroke-linecap="round" stroke-opacity="0.95" />

  <!-- Scale Chevron Arrow: Top-Right (Outward) -->
  <path d="M264 204 H308 V248" stroke="#ffffff" stroke-width="12" stroke-linecap="round" stroke-linejoin="round" />

  <!-- Scale Chevron Arrow: Bottom-Left (Outward) -->
  <path d="M248 308 H204 V264" stroke="#38bdf8" stroke-width="12" stroke-linecap="round" stroke-linejoin="round" />

  <!-- Concentric Dual-Ring Center Anchor / Pivot Node -->
  <circle cx="256" cy="256" r="26" fill="#38bdf8" opacity="0.2" />
  <circle cx="256" cy="256" r="14" fill="#0f172a" stroke="#ffffff" stroke-width="3.5" />
  <circle cx="256" cy="256" r="5" fill="#38bdf8" />
</svg>